<svg xmlns="http://www.w3.org/2000/svg" width="2048" height="1826.542"><path style="color:#000;fill:#fff;fill-opacity:1;fill-rule:nonzero;stroke:#ccc;stroke-width:.6000154;stroke-linecap:butt;stroke-linejoin:miter;stroke-miterlimit:4;stroke-opacity:1;stroke-dasharray:none;stroke-dashoffset:0;marker:none;visibility:visible;display:inline;overflow:visible;enable-background:accumulate" d="M189.351 346.469h399.4v299.4h-399.4z" transform="rotate(-6.91 -8424.085 6602.226) scale(4.21495)"/><path style="color:#000;fill:#0039a1;fill-opacity:1;fill-rule:nonzero;stroke:none;stroke-width:.52999997;marker:none;visibility:visible;display:inline;overflow:visible;enable-background:accumulate" d="M209.051 366.169h360v260h-360z" transform="rotate(-6.91 -8424.085 6602.226) scale(4.21495)"/><path style="color:#000;fill:#008a54;fill-opacity:1;fill-rule:nonzero;stroke:none;stroke-width:.52999997;marker:none;visibility:visible;display:inline;overflow:visible;enable-background:accumulate" d="M209.05 555.773c158.02 73.335 240.895-30.827 360-28v98.396h-360z" transform="rotate(-6.91 -8424.085 6602.226) scale(4.21495)"/><path style="color:#000;fill:#f9f9f9;fill-opacity:1;fill-rule:nonzero;stroke:none;stroke-width:.52999997;marker:none;visibility:visible;display:inline;overflow:visible;enable-background:accumulate" d="M294.286 438.79c0 15.386-12.472 27.858-27.857 27.858-15.386 0-27.858-12.472-27.858-27.857s12.472-27.857 27.858-27.857c15.385 0 27.857 12.472 27.857 27.857z" transform="rotate(-6.91 -8424.085 6602.226) scale(4.21495)"/><g><path style="color:#000;fill:#fff;fill-opacity:1;fill-rule:nonzero;stroke:#ccc;stroke-width:.59995151;stroke-linecap:butt;stroke-linejoin:miter;stroke-miterlimit:4;stroke-opacity:1;stroke-dasharray:none;stroke-dashoffset:0;marker:none;visibility:visible;display:inline;overflow:visible;enable-background:accumulate" d="M189.351 346.469h399.4v299.4h-399.4z" transform="rotate(-23.202 -1537.385 3002.223) scale(4.21495)"/><path style="color:#000;fill:#55d3eb;fill-opacity:1;fill-rule:nonzero;stroke:none;stroke-width:.52999997;marker:none;visibility:visible;display:inline;overflow:visible;enable-background:accumulate" d="M209.051 366.169h360v260h-360z" transform="rotate(-23.202 -1537.385 3002.223) scale(4.21495)"/><path d="M209.05 555.773c158.02 73.335 240.895-30.827 360-28v98.396h-360z" style="color:#000;fill:#1cbe5e;fill-opacity:1;fill-rule:nonzero;stroke:none;stroke-width:.52999997;marker:none;visibility:visible;display:inline;overflow:visible;enable-background:accumulate" transform="rotate(-23.202 -1537.385 3002.223) scale(4.21495)"/><path d="M294.286 438.79c0 15.386-12.472 27.858-27.857 27.858-15.386 0-27.858-12.472-27.858-27.857s12.472-27.857 27.858-27.857c15.385 0 27.857 12.472 27.857 27.857z" style="color:#000;fill:#ffff83;fill-opacity:1;fill-rule:nonzero;stroke:none;stroke-width:.52999997;marker:none;visibility:visible;display:inline;overflow:visible;enable-background:accumulate" transform="rotate(-23.202 -1537.385 3002.223) scale(4.21495)"/></g></svg>