<svg xmlns="http://www.w3.org/2000/svg" viewBox="0 0 421.62 569.63" version="1.0"><path fill="#ccc" d="M289.676 96.118c39.143 67.8 15.914 154.492-51.885 193.635S83.299 305.667 44.156 237.868 28.242 83.377 96.041 44.233 250.533 28.32 289.676 96.118z"/><path d="M83.473 22.464C3.663 68.542-23.715 170.712 22.363 250.523c40.919 70.873 126.062 100.377 200.509 73.832 5.857 11.312 123.42 238.382 123.613 238.714 5.76 9.977 26.921 8.554 47.262-3.189s32.153-29.36 26.394-39.336l-144.925-226.41c60.247-51.26 77.209-139.691 36.29-210.565C265.428 3.76 163.258-23.618 83.447 22.46zm12.6 21.824c67.763-39.123 154.512-15.879 193.635 51.885s15.878 154.512-51.885 193.635C170.059 328.93 83.31 305.686 44.188 237.923S28.309 83.41 96.073 44.288z"/><path d="M96.073 44.288C34.37 79.91 9.62 154.922 35.216 219.234c24.105.033 48.565-5.987 70.929-18.899 61.702-35.623 86.403-110.719 60.807-175.03-24.105-.033-48.515 6.072-70.879 18.983z" fill="#f2f2f2"/></svg>