<svg aria-hidden="true" style="position:absolute;width:0;height:0;overflow:hidden" xmlns="http://www.w3.org/2000/svg"><defs><symbol id="icon-glass" viewBox="0 0 32 32"><path d="M12.886 0a12.85 12.85 0 0 0-9.117 3.764c-5.021 5.021-5.027 13.218-.006 18.239 4.402 4.402 11.239 4.945 16.242 1.629l7.615 7.614c1.005 1.005 2.621 1.005 3.626 0s1.005-2.621 0-3.626l-7.609-7.614c3.312-5.003 2.766-11.841-1.635-16.242A12.85 12.85 0 0 0 12.885 0zm-.006 3.396a9.444 9.444 0 0 1 6.699 2.786c3.715 3.714 3.72 9.69.006 13.405s-9.69 3.714-13.405 0a9.455 9.455 0 0 1 0-13.405 9.44 9.44 0 0 1 6.699-2.786zM6.048 15.799a.369.369 0 0 0-.316.532l-.001-.002a7.978 7.978 0 0 0 9.192 4.288.368.368 0 0 0-.009-.713l-.003-.001a22.126 22.126 0 0 1-8.622-4.029.365.365 0 0 0-.223-.075l-.019.001h.001z"/></symbol><symbol id="icon-simple" viewBox="0 0 37 32"><path stroke-linejoin="round" stroke-linecap="round" stroke-width="2.113" d="M29.628 13.008c0 6.514-5.282 11.795-11.795 11.795-6.514 0-11.795-5.28-11.795-11.795s5.28-11.795 11.795-11.795c6.513 0 11.795 5.28 11.795 11.795z"/><path stroke-linecap="round" stroke-width="4.226" d="m26.946 22.031 7.657 6.928"/></symbol><symbol id="icon-bold" viewBox="0 0 32 32"><path d="m28.011 31.837-7.574-7.574a13.164 13.164 0 0 1-7.234 2.155C5.903 26.418 0 20.502 0 13.202 0 5.916 5.903 0 13.203 0c7.287 0 13.201 5.916 13.201 13.202a13.16 13.16 0 0 1-1.959 6.934l7.628 7.627c.404.393.065 1.372-.745 2.18l-1.136 1.139c-.81.808-1.79 1.147-2.182.756zm-5.994-18.635c0-4.871-3.945-8.815-8.815-8.815s-8.828 3.944-8.828 8.815 3.956 8.828 8.828 8.828c4.871 0 8.815-3.956 8.815-8.828z"/></symbol></defs></svg>